<mxfile host="app.diagrams.net" modified="2023-10-25T11:49:27.184Z" agent="Mozilla/5.0 (Windows NT 10.0; Win64; x64) AppleWebKit/537.36 (KHTML, like Gecko) Chrome/118.0.0.0 Safari/537.36" version="22.0.8" etag="KHDfI-MspNp1BOjENqF2" type="device">
  <diagram id="0priqYoSPE-aMJvMbrFb" name="Trang-1">
    <mxGraphModel dx="1290" dy="534" grid="1" gridSize="10" guides="1" tooltips="1" connect="1" arrows="1" fold="1" page="1" pageScale="1" pageWidth="827" pageHeight="1169" math="0" shadow="0">
      <root>
        <mxCell id="0" />
        <mxCell id="1" parent="0" />
        <mxCell id="nykp9hTtRe_y_JkpkUPJ-9" style="edgeStyle=orthogonalEdgeStyle;rounded=0;orthogonalLoop=1;jettySize=auto;html=1;exitX=0.5;exitY=0.5;exitDx=0;exitDy=0;exitPerimeter=0;entryX=1;entryY=0.5;entryDx=0;entryDy=0;" edge="1" parent="1" source="nykp9hTtRe_y_JkpkUPJ-1" target="nykp9hTtRe_y_JkpkUPJ-6">
          <mxGeometry relative="1" as="geometry" />
        </mxCell>
        <mxCell id="nykp9hTtRe_y_JkpkUPJ-1" value="sinh viên" style="shape=umlActor;verticalLabelPosition=bottom;verticalAlign=top;html=1;outlineConnect=0;" vertex="1" parent="1">
          <mxGeometry x="720" y="260" width="50" height="90" as="geometry" />
        </mxCell>
        <mxCell id="nykp9hTtRe_y_JkpkUPJ-7" style="edgeStyle=orthogonalEdgeStyle;rounded=0;orthogonalLoop=1;jettySize=auto;html=1;exitX=0.5;exitY=0.5;exitDx=0;exitDy=0;exitPerimeter=0;entryX=0;entryY=0.5;entryDx=0;entryDy=0;" edge="1" parent="1" source="nykp9hTtRe_y_JkpkUPJ-2" target="nykp9hTtRe_y_JkpkUPJ-3">
          <mxGeometry relative="1" as="geometry">
            <Array as="points">
              <mxPoint x="220" y="305" />
              <mxPoint x="220" y="140" />
            </Array>
          </mxGeometry>
        </mxCell>
        <mxCell id="nykp9hTtRe_y_JkpkUPJ-15" style="edgeStyle=orthogonalEdgeStyle;rounded=0;orthogonalLoop=1;jettySize=auto;html=1;exitX=0.5;exitY=0.5;exitDx=0;exitDy=0;exitPerimeter=0;entryX=0;entryY=0.5;entryDx=0;entryDy=0;" edge="1" parent="1" source="nykp9hTtRe_y_JkpkUPJ-2" target="nykp9hTtRe_y_JkpkUPJ-11">
          <mxGeometry relative="1" as="geometry" />
        </mxCell>
        <mxCell id="nykp9hTtRe_y_JkpkUPJ-16" style="edgeStyle=orthogonalEdgeStyle;rounded=0;orthogonalLoop=1;jettySize=auto;html=1;exitX=0.5;exitY=0.5;exitDx=0;exitDy=0;exitPerimeter=0;entryX=0;entryY=0.5;entryDx=0;entryDy=0;" edge="1" parent="1" source="nykp9hTtRe_y_JkpkUPJ-2" target="nykp9hTtRe_y_JkpkUPJ-12">
          <mxGeometry relative="1" as="geometry" />
        </mxCell>
        <mxCell id="nykp9hTtRe_y_JkpkUPJ-17" style="edgeStyle=orthogonalEdgeStyle;rounded=0;orthogonalLoop=1;jettySize=auto;html=1;exitX=0.5;exitY=0.5;exitDx=0;exitDy=0;exitPerimeter=0;entryX=0;entryY=0.5;entryDx=0;entryDy=0;" edge="1" parent="1" source="nykp9hTtRe_y_JkpkUPJ-2" target="nykp9hTtRe_y_JkpkUPJ-14">
          <mxGeometry relative="1" as="geometry" />
        </mxCell>
        <mxCell id="nykp9hTtRe_y_JkpkUPJ-2" value="giáo viên" style="shape=umlActor;verticalLabelPosition=bottom;verticalAlign=top;html=1;outlineConnect=0;" vertex="1" parent="1">
          <mxGeometry x="50" y="260" width="50" height="90" as="geometry" />
        </mxCell>
        <mxCell id="nykp9hTtRe_y_JkpkUPJ-3" value="&lt;font style=&quot;font-size: 14px;&quot;&gt;&lt;font style=&quot;&quot;&gt;Thêm đề tà&lt;/font&gt;i&lt;/font&gt;" style="ellipse;whiteSpace=wrap;html=1;" vertex="1" parent="1">
          <mxGeometry x="340" y="100" width="120" height="80" as="geometry" />
        </mxCell>
        <mxCell id="nykp9hTtRe_y_JkpkUPJ-6" value="&lt;font style=&quot;font-size: 14px;&quot;&gt;Đăng kí&lt;/font&gt;" style="ellipse;whiteSpace=wrap;html=1;" vertex="1" parent="1">
          <mxGeometry x="480" y="290" width="120" height="80" as="geometry" />
        </mxCell>
        <mxCell id="nykp9hTtRe_y_JkpkUPJ-11" value="&lt;font style=&quot;font-size: 14px;&quot;&gt;Sửa đề tài&lt;/font&gt;" style="ellipse;whiteSpace=wrap;html=1;" vertex="1" parent="1">
          <mxGeometry x="340" y="220" width="120" height="80" as="geometry" />
        </mxCell>
        <mxCell id="nykp9hTtRe_y_JkpkUPJ-12" value="&lt;font style=&quot;font-size: 14px;&quot;&gt;xóa đề tài&lt;/font&gt;" style="ellipse;whiteSpace=wrap;html=1;" vertex="1" parent="1">
          <mxGeometry x="340" y="340" width="120" height="80" as="geometry" />
        </mxCell>
        <mxCell id="nykp9hTtRe_y_JkpkUPJ-14" value="Duyệt đề tài" style="ellipse;whiteSpace=wrap;html=1;" vertex="1" parent="1">
          <mxGeometry x="340" y="460" width="120" height="80" as="geometry" />
        </mxCell>
      </root>
    </mxGraphModel>
  </diagram>
</mxfile>
